<svg width="192" height="45" viewBox="0 0 192 45" fill="none" xmlns="http://www.w3.org/2000/svg">
<path d="M11.28 39V27.56L12.76 31.48L0.44 11H7.32L16.76 26.72H12.8L22.28 11H28.64L16.32 31.48L17.76 27.56V39H11.28ZM30.2913 39.1C29.2779 39.1 28.3646 38.8733 27.5513 38.42C26.7513 37.9533 26.1179 37.32 25.6513 36.52C25.1846 35.7067 24.9513 34.78 24.9513 33.74C24.9513 32.6867 25.1846 31.76 25.6513 30.96C26.1179 30.16 26.7513 29.5333 27.5513 29.08C28.3513 28.6267 29.2646 28.4 30.2913 28.4C31.3313 28.4 32.2513 28.6267 33.0513 29.08C33.8646 29.5333 34.4979 30.16 34.9513 30.96C35.4179 31.76 35.6513 32.6867 35.6513 33.74C35.6513 34.78 35.4179 35.7067 34.9513 36.52C34.4979 37.32 33.8646 37.9533 33.0513 38.42C32.2379 38.8733 31.3179 39.1 30.2913 39.1ZM30.2913 37.84C31.0513 37.84 31.7246 37.6733 32.3113 37.34C32.8979 36.9933 33.3579 36.5133 33.6913 35.9C34.0379 35.2733 34.2113 34.5533 34.2113 33.74C34.2113 32.9133 34.0379 32.1933 33.6913 31.58C33.3579 30.9667 32.8979 30.4933 32.3113 30.16C31.7246 29.8133 31.0579 29.64 30.3113 29.64C29.5646 29.64 28.8979 29.8133 28.3113 30.16C27.7246 30.4933 27.2579 30.9667 26.9113 31.58C26.5646 32.1933 26.3913 32.9133 26.3913 33.74C26.3913 34.5533 26.5646 35.2733 26.9113 35.9C27.2579 36.5133 27.7246 36.9933 28.3113 37.34C28.8979 37.6733 29.5579 37.84 30.2913 37.84ZM40.8903 39.1C39.997 39.1 39.217 38.9333 38.5503 38.6C37.8836 38.2667 37.3636 37.7667 36.9903 37.1C36.6303 36.4333 36.4503 35.6 36.4503 34.6V28.5H37.8703V34.44C37.8703 35.56 38.1436 36.4067 38.6903 36.98C39.2503 37.54 40.0303 37.82 41.0303 37.82C41.7636 37.82 42.397 37.6733 42.9303 37.38C43.477 37.0733 43.8903 36.6333 44.1703 36.06C44.4636 35.4867 44.6103 34.8 44.6103 34V28.5H46.0303V39H44.6703V36.12L44.8903 36.64C44.557 37.4133 44.037 38.02 43.3303 38.46C42.637 38.8867 41.8236 39.1 40.8903 39.1ZM48.9878 39V28.5H50.3478V31.36L50.2078 30.86C50.5011 30.06 50.9945 29.4533 51.6878 29.04C52.3811 28.6133 53.2411 28.4 54.2678 28.4V29.78C54.2145 29.78 54.1611 29.78 54.1078 29.78C54.0545 29.7667 54.0011 29.76 53.9478 29.76C52.8411 29.76 51.9745 30.1 51.3478 30.78C50.7211 31.4467 50.4078 32.4 50.4078 33.64V39H48.9878ZM63.8352 24.24H78.2752V27.68H63.8352V24.24ZM64.2352 39H60.2352V11H79.9952V14.48H64.2352V39ZM83.7458 39.1C82.8524 39.1 82.0724 38.9333 81.4058 38.6C80.7391 38.2667 80.2191 37.7667 79.8458 37.1C79.4858 36.4333 79.3058 35.6 79.3058 34.6V28.5H80.7258V34.44C80.7258 35.56 80.9991 36.4067 81.5458 36.98C82.1058 37.54 82.8858 37.82 83.8858 37.82C84.6191 37.82 85.2524 37.6733 85.7858 37.38C86.3324 37.0733 86.7458 36.6333 87.0258 36.06C87.3191 35.4867 87.4658 34.8 87.4658 34V28.5H88.8858V39H87.5258V36.12L87.7458 36.64C87.4124 37.4133 86.8924 38.02 86.1858 38.46C85.4924 38.8867 84.6791 39.1 83.7458 39.1ZM90.8433 39V28.5H92.2033V31.36L92.0633 30.86C92.3566 30.06 92.8499 29.4533 93.5433 29.04C94.2366 28.6133 95.0966 28.4 96.1233 28.4V29.78C96.0699 29.78 96.0166 29.78 95.9633 29.78C95.9099 29.7667 95.8566 29.76 95.8033 29.76C94.6966 29.76 93.8299 30.1 93.2033 30.78C92.5766 31.4467 92.2633 32.4 92.2633 33.64V39H90.8433ZM105.074 28.4C105.928 28.4 106.674 28.5667 107.314 28.9C107.968 29.22 108.474 29.7133 108.834 30.38C109.208 31.0467 109.394 31.8867 109.394 32.9V39H107.974V33.04C107.974 31.9333 107.694 31.1 107.134 30.54C106.588 29.9667 105.814 29.68 104.814 29.68C104.068 29.68 103.414 29.8333 102.854 30.14C102.308 30.4333 101.881 30.8667 101.574 31.44C101.281 32 101.134 32.68 101.134 33.48V39H99.7144V28.5H101.074V31.38L100.854 30.84C101.188 30.08 101.721 29.4867 102.454 29.06C103.188 28.62 104.061 28.4 105.074 28.4ZM114.23 39V28.5H115.65V39H114.23ZM114.95 26.18C114.657 26.18 114.41 26.08 114.21 25.88C114.01 25.68 113.91 25.44 113.91 25.16C113.91 24.88 114.01 24.6467 114.21 24.46C114.41 24.26 114.657 24.16 114.95 24.16C115.243 24.16 115.49 24.2533 115.69 24.44C115.89 24.6267 115.99 24.86 115.99 25.14C115.99 25.4333 115.89 25.68 115.69 25.88C115.503 26.08 115.257 26.18 114.95 26.18ZM130.981 39.32C128.848 39.32 126.808 39 124.861 38.36C122.914 37.6933 121.381 36.84 120.261 35.8L121.741 32.68C122.808 33.6133 124.168 34.3867 125.821 35C127.474 35.6133 129.194 35.92 130.981 35.92C132.608 35.92 133.928 35.7333 134.941 35.36C135.954 34.9867 136.701 34.48 137.181 33.84C137.661 33.1733 137.901 32.4267 137.901 31.6C137.901 30.64 137.581 29.8667 136.941 29.28C136.328 28.6933 135.514 28.2267 134.501 27.88C133.514 27.5067 132.421 27.1867 131.221 26.92C130.021 26.6533 128.808 26.3467 127.581 26C126.381 25.6267 125.274 25.16 124.261 24.6C123.274 24.04 122.474 23.2933 121.861 22.36C121.248 21.4 120.941 20.1733 120.941 18.68C120.941 17.24 121.314 15.92 122.061 14.72C122.834 13.4933 124.008 12.52 125.581 11.8C127.181 11.0533 129.208 10.68 131.661 10.68C133.288 10.68 134.901 10.8933 136.501 11.32C138.101 11.7467 139.488 12.36 140.661 13.16L139.341 16.36C138.141 15.56 136.874 14.9867 135.541 14.64C134.208 14.2667 132.914 14.08 131.661 14.08C130.088 14.08 128.794 14.28 127.781 14.68C126.768 15.08 126.021 15.6133 125.541 16.28C125.088 16.9467 124.861 17.6933 124.861 18.52C124.861 19.5067 125.168 20.2933 125.781 20.88C126.421 21.4667 127.234 21.9333 128.221 22.28C129.234 22.6267 130.341 22.9467 131.541 23.24C132.741 23.5067 133.941 23.8133 135.141 24.16C136.368 24.5067 137.474 24.96 138.461 25.52C139.474 26.08 140.288 26.8267 140.901 27.76C141.514 28.6933 141.821 29.8933 141.821 31.36C141.821 32.7733 141.434 34.0933 140.661 35.32C139.888 36.52 138.688 37.4933 137.061 38.24C135.461 38.96 133.434 39.32 130.981 39.32ZM148.805 28.4C149.658 28.4 150.405 28.5667 151.045 28.9C151.698 29.22 152.205 29.7133 152.565 30.38C152.938 31.0467 153.125 31.8867 153.125 32.9V39H151.705V33.04C151.705 31.9333 151.425 31.1 150.865 30.54C150.318 29.9667 149.545 29.68 148.545 29.68C147.798 29.68 147.145 29.8333 146.585 30.14C146.038 30.4333 145.612 30.8667 145.305 31.44C145.012 32 144.865 32.68 144.865 33.48V39H143.445V24.16H144.865V31.38L144.585 30.84C144.918 30.08 145.452 29.4867 146.185 29.06C146.918 28.62 147.792 28.4 148.805 28.4ZM160.24 39.1C159.227 39.1 158.314 38.8733 157.5 38.42C156.7 37.9533 156.067 37.32 155.6 36.52C155.134 35.7067 154.9 34.78 154.9 33.74C154.9 32.6867 155.134 31.76 155.6 30.96C156.067 30.16 156.7 29.5333 157.5 29.08C158.3 28.6267 159.214 28.4 160.24 28.4C161.28 28.4 162.2 28.6267 163 29.08C163.814 29.5333 164.447 30.16 164.9 30.96C165.367 31.76 165.6 32.6867 165.6 33.74C165.6 34.78 165.367 35.7067 164.9 36.52C164.447 37.32 163.814 37.9533 163 38.42C162.187 38.8733 161.267 39.1 160.24 39.1ZM160.24 37.84C161 37.84 161.674 37.6733 162.26 37.34C162.847 36.9933 163.307 36.5133 163.64 35.9C163.987 35.2733 164.16 34.5533 164.16 33.74C164.16 32.9133 163.987 32.1933 163.64 31.58C163.307 30.9667 162.847 30.4933 162.26 30.16C161.674 29.8133 161.007 29.64 160.26 29.64C159.514 29.64 158.847 29.8133 158.26 30.16C157.674 30.4933 157.207 30.9667 156.86 31.58C156.514 32.1933 156.34 32.9133 156.34 33.74C156.34 34.5533 156.514 35.2733 156.86 35.9C157.207 36.5133 157.674 36.9933 158.26 37.34C158.847 37.6733 159.507 37.84 160.24 37.84ZM174.92 39.1C174.013 39.1 173.193 38.8933 172.46 38.48C171.726 38.0533 171.14 37.4467 170.7 36.66C170.273 35.86 170.06 34.8867 170.06 33.74C170.06 32.5933 170.273 31.6267 170.7 30.84C171.126 30.04 171.706 29.4333 172.44 29.02C173.173 28.6067 174 28.4 174.92 28.4C175.92 28.4 176.813 28.6267 177.6 29.08C178.4 29.52 179.026 30.1467 179.48 30.96C179.933 31.76 180.16 32.6867 180.16 33.74C180.16 34.8067 179.933 35.74 179.48 36.54C179.026 37.34 178.4 37.9667 177.6 38.42C176.813 38.8733 175.92 39.1 174.92 39.1ZM169.5 42.88V28.5H170.86V31.66L170.72 33.76L170.92 35.88V42.88H169.5ZM174.82 37.84C175.566 37.84 176.233 37.6733 176.82 37.34C177.406 36.9933 177.873 36.5133 178.22 35.9C178.566 35.2733 178.74 34.5533 178.74 33.74C178.74 32.9267 178.566 32.2133 178.22 31.6C177.873 30.9867 177.406 30.5067 176.82 30.16C176.233 29.8133 175.566 29.64 174.82 29.64C174.073 29.64 173.4 29.8133 172.8 30.16C172.213 30.5067 171.746 30.9867 171.4 31.6C171.066 32.2133 170.9 32.9267 170.9 33.74C170.9 34.5533 171.066 35.2733 171.4 35.9C171.746 36.5133 172.213 36.9933 172.8 37.34C173.4 37.6733 174.073 37.84 174.82 37.84Z" fill="black"/>
<path d="M188.439 31.98H181.563C181.342 31.98 181.161 32.2062 181.161 32.43C181.161 32.6537 181.342 32.8798 181.563 32.8798H181.66V33.7798H188.352V32.8798H188.439C188.66 32.8798 188.841 32.6537 188.841 32.43C188.841 32.2062 188.66 31.98 188.439 31.98ZM185.001 33.3336C184.89 33.3336 184.8 33.2294 184.8 33.101C184.8 32.9727 184.89 32.8685 185.001 32.8685C185.112 32.8685 185.202 32.9727 185.202 33.101C185.202 33.2294 185.112 33.3336 185.001 33.3336ZM181.66 35.5796H188.352V34.14H181.66V35.5796ZM185.001 34.6123C185.112 34.6123 185.202 34.7163 185.202 34.8447C185.202 34.9732 185.112 35.0772 185.001 35.0772C184.89 35.0772 184.8 34.9732 184.8 34.8447C184.8 34.7163 184.89 34.6123 185.001 34.6123ZM181.66 36.8211V37.8676C181.66 37.9954 181.675 38.1002 181.785 38.1002H182.589C182.7 38.1002 182.75 37.9954 182.75 37.8676V37.1998H187.263V37.8676C187.263 37.9954 187.303 38.1002 187.413 38.1002H188.217C188.327 38.1002 188.352 37.9954 188.352 37.8676V35.94H181.66V36.8211ZM185.001 36.3561C185.112 36.3561 185.202 36.4604 185.202 36.5885C185.202 36.7172 185.112 36.8209 185.001 36.8209C184.89 36.8209 184.8 36.7172 184.8 36.5885C184.8 36.4605 184.89 36.3561 185.001 36.3561Z" fill="black"/>
</svg>
